<?xml version="1.0" encoding="UTF-8"?>
<svg id="a" data-name="Layer 1" xmlns="http://www.w3.org/2000/svg" width="1200" height="300" viewBox="0 0 120 30">
  <g>
    <path d="m73.005,13.191c.004-.02-.005-.04-.023-.049l-.032-.017c-.02-.011-.043-.004-.058.012l-.171.155c-.526.477-1.21.741-1.919.741h-3.48v-4.325c0-.515.299-.983.767-1.198.016-.007.027-.024.027-.041v-.039c0-.025-.02-.046-.046-.046h-1.925c-.025,0-.046.02-.046.046v.04c0,.017.017.033.025.041l.326.354v5.056l-.626.38c-.015.01-.025.024-.025.041v.048c0,.025.02.046.046.046h6.819l.342-1.242Z" fill="#231f20"/>
    <path d="m46.186,8.434c0-.028-.023-.051-.052-.051h-1.321c-.025,0-.046.02-.046.046v.04c0,.017.011.03.025.041l.433.353-.002.721v2.543c0,.937-.61,1.642-1.612,1.642-.985,0-1.577-.662-1.577-1.608v-2.456c0-.514.3-.98.766-1.195h0c.016-.007.026-.024.026-.041v-.039c0-.025-.02-.046-.046-.046h-2.005c-.054,0-.071.038-.071.085,0,.017.012.03.025.041l.433.353v1.938h0v2.048c.296,1.015,1.159,1.625,2.239,1.625,1.333,0,2.309-.826,2.309-2.201v-2.894c0-.339.161-.659.435-.865.025-.019.04-.048.04-.079Z" fill="#231f20"/>
    <path d="m54.659,14.433h4.022l.402-1.307c.009-.031-.004-.064-.032-.079-.028-.015-.062-.009-.083.015-.798.903-.976.988-1.586.988h-1.177v-2.319h1.09l.434.558c.006.019.024.031.043.031.025,0,.046-.02.046-.046v-1.534c0-.025-.02-.046-.046-.046h-.002c-.019,0-.036.012-.042.029-.272.27-.64.422-1.023.422h-.5v-2.38h.62c.701,0,1.377.259,1.898.728l.214.193c.014.013.034.015.051.007l.024-.012c.02-.01.03-.033.023-.055l-.398-1.244h-3.716c-.025,0-.046.02-.046.046v.039c0,.018.008.028.026.041l.432.336v5.1l-.707.346c-.026.013-.042.039-.042.068,0,.042.034.075.075.075Z" fill="#231f20"/>
    <path d="m81.874,14.433h4.022l.402-1.307c.009-.031-.004-.064-.032-.079-.028-.015-.062-.009-.083.015-.798.903-.976.988-1.586.988h-1.177v-2.319h1.09l.434.558c.006.019.024.031.043.031.025,0,.046-.02.046-.046v-1.534c0-.025-.02-.046-.046-.046h-.002c-.019,0-.036.012-.042.029-.272.27-.64.422-1.023.422h-.5v-2.38h.62c.701,0,1.377.259,1.898.728l.214.193c.014.013.034.015.051.007l.024-.012c.02-.01.03-.033.023-.055l-.398-1.244h-3.716c-.025,0-.046.02-.046.046v.039c0,.018.008.028.026.041l.432.336v5.1l-.707.346c-.026.013-.042.039-.042.068,0,.042.034.075.075.075Z" fill="#231f20"/>
    <path d="m54.588,13.191c.004-.02-.005-.04-.023-.049l-.032-.017c-.02-.011-.043-.004-.058.012l-.171.155c-.526.477-1.21.741-1.919.741h-.51v-4.325c0-.515.299-.983.767-1.198.016-.007.027-.024.027-.041v-.039c0-.025-.02-.046-.046-.046h-1.925c-.025,0-.046.02-.046.046v.04c0,.017.017.033.025.041l.326.354v5.056l-.626.38c-.015.01-.025.024-.025.041v.048c0,.025.02.046.046.046h3.849l.342-1.242Z" fill="#231f20"/>
    <path d="m50.337,13.191c.004-.02-.005-.04-.023-.049l-.032-.017c-.02-.011-.043-.004-.058.012l-.171.155c-.526.477-1.21.741-1.919.741h-.51v-4.325c0-.515.299-.983.767-1.198.016-.007.027-.024.027-.041v-.039c0-.025-.02-.046-.046-.046h-1.925c-.025,0-.046.02-.046.046v.04c0,.017.017.033.025.041l.326.354v5.056l-.626.38c-.015.01-.025.024-.025.041v.048c0,.025.02.046.046.046h3.849l.342-1.242Z" fill="#231f20"/>
    <path d="m40.532,14.291l-.668-.48.002-4.936.573-.367c.013-.008.021-.023.021-.038v-.042c0-.025-.02-.046-.046-.046h-1.074c-.115.447-.452.958-.783,1.451,0,0-1.196,1.705-1.196,1.705l-2.227-3.156h-1.198c-.038,0-.068.031-.068.069,0,.022.011.037.028.056l.57.627v4.643l-.728.514c-.024.017-.04.039-.04.067h0c0,.042.033.075.075.075h1.808c.041,0,.075-.034.075-.075,0-.028-.016-.049-.041-.067l-.668-.48v-4.297l2.276,3.07h0s1.807-2.694,1.807-2.694v3.887s-.605.514-.605.514c-.021.021-.04.039-.04.067h0c0,.042.033.075.075.075h2.039c.041,0,.075-.034.075-.075,0-.028-.017-.05-.041-.067Z" fill="#231f20"/>
    <path d="m70.823,8.314c-1.317-.013-2.395,1.045-2.408,2.362-.013,1.317,1.045,2.395,2.362,2.408,1.317.013,2.395-1.045,2.408-2.362.013-1.317-1.045-2.395-2.362-2.408Zm-.041,4.271c-.858-.008-1.546-.859-1.536-1.901.01-1.041.714-1.879,1.572-1.871.858.008,1.546.859,1.536,1.901-.01,1.041-.714,1.879-1.572,1.871Z" fill="#231f20"/>
    <path d="m81.834,8.472v-.04c0-.025-.02-.046-.046-.046h-1.747c-.025,0-.046.02-.046.046v.04c0,.017.009.032.024.04l.577.309-1.324,4.372-1.394-4.851h-.479l-1.611,4.886-1.08-4.407.687-.31c.016-.007.027-.024.027-.042v-.038c0-.025-.02-.046-.046-.046h-2.147c-.025,0-.046.02-.046.046v.041c0,.016.009.031.023.039l.596.344,1.455,5.618h.514l1.629-4.695,1.35,4.695h.523l1.873-5.609.664-.353c.015-.008.024-.023.024-.04Z" fill="#231f20"/>
    <path d="m65.646,8.383h-2.001c-.025,0-.046.02-.046.046v.042c0,.016.008.031.022.039l.719.431v4.237l-3.391-4.795h-1.506c-.025,0-.046.02-.046.046v.036c0,.015.007.028.019.037l.809.588v4.681l-1.021.528c-.015.008-.025.023-.025.041v.049c0,.025.02.046.046.046h2.348c.025,0,.046-.02.046-.046v-.049c0-.017-.01-.033-.025-.041l-.881-.493v-4.333l3.539,5.004h.575v-4.567c0-.586.322-1.124.839-1.401.015-.008.024-.023.024-.04v-.04c0-.025-.02-.046-.046-.046Z" fill="#231f20"/>
  </g>
  <g>
    <path d="m67.383,21.576l-.449-.242-1.105-3.301h-.451l-1.308,3.259-.538.284c-.014.007-.023.022-.023.038v.003c0,.024.019.043.043.043h1.237c.024,0,.043-.019.043-.043,0-.018-.011-.034-.028-.04-.365-.142-.424-.193-.424-.269,0-.041.021-.119.083-.28l.306-.784h1.261l.379,1.142-.411.191c-.015.007-.025.022-.025.039v.002c0,.024.019.043.043.043h1.346c.024,0,.043-.019.043-.043v-.004c0-.016-.009-.03-.023-.038Zm-2.453-1.742l.524-1.339.441,1.339h-.965Z" fill="#231f20"/>
    <path d="m61.389,20.902c-.012-.007-.026-.002-.035.007l-.102.093c-.315.286-.725.444-1.151.444h-.306v-2.593c0-.309.18-.589.46-.719.01-.004.016-.014.016-.025v-.023c0-.015-.012-.027-.027-.027h-1.154c-.015,0-.027.012-.027.027v.024c0,.01.01.019.015.024l.196.212v3.031l-.376.228c-.009.006-.015.014-.015.025v.029c0,.015.012.027.027.027h2.308l.205-.745c.002-.012-.003-.024-.014-.03l-.019-.01Z" fill="#231f20"/>
    <path d="m62.771,21.383v-3.119c.42,0,.826.156,1.139.437l.128.116c.008.008.02.009.031.004l.015-.007c.012-.006.018-.02.014-.033l-.239-.747h-2.698l-.239.747c-.004.013.002.027.014.033l.015.007c.01.005.022.003.031-.004l.129-.116c.313-.281.718-.437,1.139-.437v3.089l-.493.229c-.009.004-.014.013-.014.022v.03c0,.015.012.027.027.027h1.483c.015,0,.027-.012.027-.027v-.03c0-.01-.006-.019-.015-.023l-.492-.199Z" fill="#231f20"/>
    <path d="m54.022,18.058h-1.359c-.023,0-.042.019-.042.042,0,.016.009.03.023.037l.411.218v3.053l-.435.193c-.015.007-.025.022-.025.039v.003c0,.023.019.042.042.042h1.338c1.113,0,2.012-.784,2.012-1.856,0-.972-.653-1.772-1.965-1.772Zm-.307,3.403c-.021,0-.052,0-.094-.005v-3.204h.068c1.119,0,1.728.58,1.728,1.573,0,1.004-.641,1.636-1.702,1.636Z" fill="#231f20"/>
    <path d="m58.615,20.864c-.478.542-.585.592-.951.592h-.706v-1.39h.653l.26.335c.004.011.014.019.026.019.015,0,.027-.012.027-.027v-.92c0-.015-.012-.027-.027-.027h-.001c-.011,0-.021.007-.025.017-.163.162-.384.253-.614.253h-.3v-1.427h.372c.42,0,.825.155,1.138.437l.128.115c.008.008.02.009.03.004l.015-.007c.012-.006.018-.02.014-.033l-.239-.746h-2.228c-.015,0-.027.012-.027.027v.023c0,.011.005.017.015.025l.259.202v3.058l-.424.207c-.016.008-.025.023-.025.041,0,.025.02.045.045.045h2.412l.241-.784c.006-.018-.002-.038-.019-.048-.017-.009-.037-.005-.05.009Z" fill="#231f20"/>
  </g>
</svg>